<svg width="103" height="264" viewBox="0 0 103 264" fill="none" xmlns="http://www.w3.org/2000/svg">
<ellipse cx="3.5" cy="3.55815" rx="3.5" ry="3.55815" fill="#00D285"/>
<ellipse cx="3.5" cy="15.7575" rx="3.5" ry="3.55815" fill="#00D285"/>
<ellipse cx="3.5" cy="27.9569" rx="3.5" ry="3.55815" fill="#00D285"/>
<ellipse cx="3.5" cy="40.1563" rx="3.5" ry="3.55815" fill="#00D285"/>
<ellipse cx="3.5" cy="52.3557" rx="3.5" ry="3.55815" fill="#00D285"/>
<ellipse cx="3.5" cy="64.5551" rx="3.5" ry="3.55815" fill="#00D285"/>
<ellipse cx="3.5" cy="76.7545" rx="3.5" ry="3.55815" fill="#00D285"/>
<ellipse cx="3.5" cy="88.9538" rx="3.5" ry="3.55815" fill="#00D285"/>
<ellipse cx="3.5" cy="101.153" rx="3.5" ry="3.55815" fill="#00D285"/>
<ellipse cx="3.5" cy="113.353" rx="3.5" ry="3.55815" fill="#00D285"/>
<ellipse cx="3.5" cy="125.552" rx="3.5" ry="3.55815" fill="#00D285"/>
<ellipse cx="3.5" cy="137.751" rx="3.5" ry="3.55815" fill="#00D285"/>
<ellipse cx="3.5" cy="149.951" rx="3.5" ry="3.55815" fill="#00D285"/>
<ellipse cx="3.5" cy="162.15" rx="3.5" ry="3.55815" fill="#00D285"/>
<ellipse cx="3.5" cy="174.35" rx="3.5" ry="3.55815" fill="#00D285"/>
<ellipse cx="3.5" cy="186.549" rx="3.5" ry="3.55815" fill="#00D285"/>
<ellipse cx="3.5" cy="198.748" rx="3.5" ry="3.55815" fill="#00D285"/>
<ellipse cx="3.5" cy="210.948" rx="3.5" ry="3.55815" fill="#00D285"/>
<ellipse cx="3.5" cy="223.147" rx="3.5" ry="3.55815" fill="#00D285"/>
<ellipse cx="3.5" cy="235.346" rx="3.5" ry="3.55815" fill="#00D285"/>
<ellipse cx="3.5" cy="247.546" rx="3.5" ry="3.55815" fill="#00D285"/>
<ellipse cx="3.5" cy="259.745" rx="3.5" ry="3.55815" fill="#00D285"/>
<ellipse cx="39.5" cy="259.745" rx="3.5" ry="3.55815" fill="#00D285"/>
<ellipse cx="75.5" cy="259.745" rx="3.5" ry="3.55815" fill="#00D285"/>
<ellipse cx="15.5" cy="3.55815" rx="3.5" ry="3.55815" fill="#00D285"/>
<ellipse cx="15.5" cy="15.7575" rx="3.5" ry="3.55815" fill="#00D285"/>
<ellipse cx="15.5" cy="27.9569" rx="3.5" ry="3.55815" fill="#00D285"/>
<ellipse cx="15.5" cy="40.1563" rx="3.5" ry="3.55815" fill="#00D285"/>
<ellipse cx="15.5" cy="52.3557" rx="3.5" ry="3.55815" fill="#00D285"/>
<ellipse cx="15.5" cy="64.5551" rx="3.5" ry="3.55815" fill="#00D285"/>
<ellipse cx="15.5" cy="76.7545" rx="3.5" ry="3.55815" fill="#00D285"/>
<ellipse cx="15.5" cy="88.9538" rx="3.5" ry="3.55815" fill="#00D285"/>
<ellipse cx="15.5" cy="101.153" rx="3.5" ry="3.55815" fill="#00D285"/>
<ellipse cx="15.5" cy="113.353" rx="3.5" ry="3.55815" fill="#00D285"/>
<ellipse cx="15.5" cy="125.552" rx="3.5" ry="3.55815" fill="#00D285"/>
<ellipse cx="15.5" cy="137.751" rx="3.5" ry="3.55815" fill="#00D285"/>
<ellipse cx="15.5" cy="149.951" rx="3.5" ry="3.55815" fill="#00D285"/>
<ellipse cx="15.5" cy="162.15" rx="3.5" ry="3.55815" fill="#00D285"/>
<ellipse cx="15.5" cy="174.35" rx="3.5" ry="3.55815" fill="#00D285"/>
<ellipse cx="15.5" cy="186.549" rx="3.5" ry="3.55815" fill="#00D285"/>
<ellipse cx="15.5" cy="198.748" rx="3.5" ry="3.55815" fill="#00D285"/>
<ellipse cx="15.5" cy="210.948" rx="3.5" ry="3.55815" fill="#00D285"/>
<ellipse cx="15.5" cy="223.147" rx="3.5" ry="3.55815" fill="#00D285"/>
<ellipse cx="15.5" cy="235.346" rx="3.5" ry="3.55815" fill="#00D285"/>
<ellipse cx="15.5" cy="247.546" rx="3.5" ry="3.55815" fill="#00D285"/>
<ellipse cx="15.5" cy="259.745" rx="3.5" ry="3.55815" fill="#00D285"/>
<ellipse cx="51.5" cy="259.745" rx="3.5" ry="3.55815" fill="#00D285"/>
<ellipse cx="87.5" cy="259.745" rx="3.5" ry="3.55815" fill="#00D285"/>
<ellipse cx="27.5" cy="3.55815" rx="3.5" ry="3.55815" fill="#00D285"/>
<ellipse cx="27.5" cy="15.7575" rx="3.5" ry="3.55815" fill="#00D285"/>
<ellipse cx="27.5" cy="27.9569" rx="3.5" ry="3.55815" fill="#00D285"/>
<ellipse cx="27.5" cy="40.1563" rx="3.5" ry="3.55815" fill="#00D285"/>
<ellipse cx="27.5" cy="52.3557" rx="3.5" ry="3.55815" fill="#00D285"/>
<ellipse cx="27.5" cy="64.5551" rx="3.5" ry="3.55815" fill="#00D285"/>
<ellipse cx="27.5" cy="76.7545" rx="3.5" ry="3.55815" fill="#00D285"/>
<ellipse cx="27.5" cy="88.9538" rx="3.5" ry="3.55815" fill="#00D285"/>
<ellipse cx="27.5" cy="101.153" rx="3.5" ry="3.55815" fill="#00D285"/>
<ellipse cx="27.5" cy="113.353" rx="3.5" ry="3.55815" fill="#00D285"/>
<ellipse cx="27.5" cy="125.552" rx="3.5" ry="3.55815" fill="#00D285"/>
<ellipse cx="27.5" cy="137.751" rx="3.5" ry="3.55815" fill="#00D285"/>
<ellipse cx="27.5" cy="149.951" rx="3.5" ry="3.55815" fill="#00D285"/>
<ellipse cx="27.5" cy="162.15" rx="3.5" ry="3.55815" fill="#00D285"/>
<ellipse cx="27.5" cy="174.35" rx="3.5" ry="3.55815" fill="#00D285"/>
<ellipse cx="27.5" cy="186.549" rx="3.5" ry="3.55815" fill="#00D285"/>
<ellipse cx="27.5" cy="198.748" rx="3.5" ry="3.55815" fill="#00D285"/>
<ellipse cx="27.5" cy="210.948" rx="3.5" ry="3.55815" fill="#00D285"/>
<ellipse cx="27.5" cy="223.147" rx="3.5" ry="3.55815" fill="#00D285"/>
<ellipse cx="27.5" cy="235.346" rx="3.5" ry="3.55815" fill="#00D285"/>
<ellipse cx="27.5" cy="247.546" rx="3.5" ry="3.55815" fill="#00D285"/>
<ellipse cx="27.5" cy="259.745" rx="3.5" ry="3.55815" fill="#00D285"/>
<ellipse cx="63.5" cy="259.745" rx="3.5" ry="3.55815" fill="#00D285"/>
<ellipse cx="99.5" cy="259.745" rx="3.5" ry="3.55815" fill="#00D285"/>
</svg>
