<svg width="996" height="1056" viewBox="0 0 996 1056" fill="none" xmlns="http://www.w3.org/2000/svg">
<path d="M1 1C86.5 62 -21 108.5 64.8713 122.017C118.467 130.454 152.356 177.727 162.589 210.777C169.219 228.385 193.98 258.318 239.985 237.189C297.492 210.777 316.949 280.053 313.49 309.928C310.031 339.804 270.252 373.143 250.362 332.876C230.473 292.609 224.852 266.198 280.197 255.806C335.541 245.415 329.488 414.275 447.96 429.429C566.432 444.584 484.001 662.36 557 618.5C649.962 562.646 626.381 648.729 677 584C702.716 551.116 652.653 504.147 616 510.5C578.5 517 487 761.711 616 854.5C815.5 998 1049 928.5 983 912.5C917 896.5 890 995.977 905.5 1055.5" stroke="#00D285" stroke-opacity="0.4" stroke-width="2"/>
</svg>
