<svg width="119" height="142" viewBox="0 0 119 142" fill="none" xmlns="http://www.w3.org/2000/svg">
<ellipse cx="3.5" cy="4.24858" rx="3.5" ry="3.55815" fill="#00D285"/>
<ellipse cx="3.5" cy="16.448" rx="3.5" ry="3.55815" fill="#00D285"/>
<ellipse cx="3.5" cy="28.6474" rx="3.5" ry="3.55815" fill="#00D285"/>
<ellipse cx="3.5" cy="40.8467" rx="3.5" ry="3.55815" fill="#00D285"/>
<ellipse cx="3.5" cy="53.0462" rx="3.5" ry="3.55815" fill="#00D285"/>
<ellipse cx="3.5" cy="65.2455" rx="3.5" ry="3.55815" fill="#00D285"/>
<ellipse cx="3.5" cy="77.4449" rx="3.5" ry="3.55815" fill="#00D285"/>
<path d="M7 89.6443C7 91.6094 5.433 93.2025 3.5 93.2025C1.567 93.2025 0 91.6094 0 89.6443C0 87.6792 1.567 86.0862 3.5 86.0862C5.433 86.0862 7 87.6792 7 89.6443Z" fill="#00D285"/>
<ellipse cx="3.5" cy="101.844" rx="3.5" ry="3.55815" fill="#00D285"/>
<ellipse cx="3.5" cy="114.043" rx="3.5" ry="3.55815" fill="#00D285"/>
<ellipse cx="3.5" cy="126.242" rx="3.5" ry="3.55815" fill="#00D285"/>
<ellipse cx="3.5" cy="138.442" rx="3.5" ry="3.55815" fill="#00D285"/>
<ellipse cx="19.5" cy="4.24858" rx="3.5" ry="3.55815" fill="#00D285"/>
<ellipse cx="19.5" cy="16.448" rx="3.5" ry="3.55815" fill="#00D285"/>
<ellipse cx="19.5" cy="28.6474" rx="3.5" ry="3.55815" fill="#00D285"/>
<ellipse cx="19.5" cy="40.8467" rx="3.5" ry="3.55815" fill="#00D285"/>
<ellipse cx="19.5" cy="53.0462" rx="3.5" ry="3.55815" fill="#00D285"/>
<ellipse cx="19.5" cy="65.2455" rx="3.5" ry="3.55815" fill="#00D285"/>
<ellipse cx="19.5" cy="77.4449" rx="3.5" ry="3.55815" fill="#00D285"/>
<ellipse cx="19.5" cy="89.6443" rx="3.5" ry="3.55815" fill="#00D285"/>
<ellipse cx="19.5" cy="101.844" rx="3.5" ry="3.55815" fill="#00D285"/>
<ellipse cx="19.5" cy="114.043" rx="3.5" ry="3.55815" fill="#00D285"/>
<ellipse cx="19.5" cy="126.242" rx="3.5" ry="3.55815" fill="#00D285"/>
<ellipse cx="19.5" cy="138.442" rx="3.5" ry="3.55815" fill="#00D285"/>
<ellipse cx="35.5" cy="4.24858" rx="3.5" ry="3.55815" fill="#00D285"/>
<ellipse cx="51.5" cy="4.24858" rx="3.5" ry="3.55815" fill="#00D285"/>
<ellipse cx="67.5" cy="4.24858" rx="3.5" ry="3.55815" fill="#00D285"/>
<ellipse cx="83.5" cy="4.24858" rx="3.5" ry="3.55815" fill="#00D285"/>
<ellipse cx="99.5" cy="4.24858" rx="3.5" ry="3.55815" fill="#00D285"/>
<ellipse cx="115.5" cy="4.24858" rx="3.5" ry="3.55815" fill="#00D285"/>
<ellipse cx="35.5" cy="16.448" rx="3.5" ry="3.55815" fill="#00D285"/>
<ellipse cx="51.5" cy="16.448" rx="3.5" ry="3.55815" fill="#00D285"/>
<ellipse cx="67.5" cy="16.448" rx="3.5" ry="3.55815" fill="#00D285"/>
<ellipse cx="83.5" cy="16.448" rx="3.5" ry="3.55815" fill="#00D285"/>
<ellipse cx="99.5" cy="16.448" rx="3.5" ry="3.55815" fill="#00D285"/>
<ellipse cx="115.5" cy="16.448" rx="3.5" ry="3.55815" fill="#00D285"/>
<ellipse cx="35.5" cy="28.6474" rx="3.5" ry="3.55815" fill="#00D285"/>
<ellipse cx="51.5" cy="28.6474" rx="3.5" ry="3.55815" fill="#00D285"/>
<ellipse cx="67.5" cy="28.6474" rx="3.5" ry="3.55815" fill="#00D285"/>
<ellipse cx="83.5" cy="28.6474" rx="3.5" ry="3.55815" fill="#00D285"/>
<ellipse cx="99.5" cy="28.6474" rx="3.5" ry="3.55815" fill="#00D285"/>
<ellipse cx="115.5" cy="28.6474" rx="3.5" ry="3.55815" fill="#00D285"/>
<ellipse cx="35.5" cy="40.8467" rx="3.5" ry="3.55815" fill="#00D285"/>
<ellipse cx="51.5" cy="40.8467" rx="3.5" ry="3.55815" fill="#00D285"/>
<ellipse cx="67.5" cy="40.8467" rx="3.5" ry="3.55815" fill="#00D285"/>
<ellipse cx="83.5" cy="40.8467" rx="3.5" ry="3.55815" fill="#00D285"/>
<ellipse cx="99.5" cy="40.8467" rx="3.5" ry="3.55815" fill="#00D285"/>
<ellipse cx="115.5" cy="40.8467" rx="3.5" ry="3.55815" fill="#00D285"/>
<ellipse cx="35.5" cy="53.0462" rx="3.5" ry="3.55815" fill="#00D285"/>
<ellipse cx="51.5" cy="53.0462" rx="3.5" ry="3.55815" fill="#00D285"/>
<ellipse cx="67.5" cy="53.0462" rx="3.5" ry="3.55815" fill="#00D285"/>
<ellipse cx="83.5" cy="53.0462" rx="3.5" ry="3.55815" fill="#00D285"/>
<ellipse cx="99.5" cy="53.0462" rx="3.5" ry="3.55815" fill="#00D285"/>
<ellipse cx="115.5" cy="53.0462" rx="3.5" ry="3.55815" fill="#00D285"/>
<ellipse cx="35.5" cy="65.2455" rx="3.5" ry="3.55815" fill="#00D285"/>
<ellipse cx="51.5" cy="65.2455" rx="3.5" ry="3.55815" fill="#00D285"/>
<ellipse cx="67.5" cy="65.2455" rx="3.5" ry="3.55815" fill="#00D285"/>
<ellipse cx="83.5" cy="65.2455" rx="3.5" ry="3.55815" fill="#00D285"/>
<ellipse cx="99.5" cy="65.2455" rx="3.5" ry="3.55815" fill="#00D285"/>
<ellipse cx="115.5" cy="65.2455" rx="3.5" ry="3.55815" fill="#00D285"/>
<ellipse cx="35.5" cy="77.4449" rx="3.5" ry="3.55815" fill="#00D285"/>
<ellipse cx="51.5" cy="77.4449" rx="3.5" ry="3.55815" fill="#00D285"/>
<ellipse cx="67.5" cy="77.4449" rx="3.5" ry="3.55815" fill="#00D285"/>
<ellipse cx="83.5" cy="77.4449" rx="3.5" ry="3.55815" fill="#00D285"/>
<ellipse cx="99.5" cy="77.4449" rx="3.5" ry="3.55815" fill="#00D285"/>
<ellipse cx="115.5" cy="77.4449" rx="3.5" ry="3.55815" fill="#00D285"/>
<ellipse cx="35.5" cy="89.6443" rx="3.5" ry="3.55815" fill="#00D285"/>
<ellipse cx="51.5" cy="89.6443" rx="3.5" ry="3.55815" fill="#00D285"/>
<ellipse cx="67.5" cy="89.6443" rx="3.5" ry="3.55815" fill="#00D285"/>
<ellipse cx="83.5" cy="89.6443" rx="3.5" ry="3.55815" fill="#00D285"/>
<ellipse cx="99.5" cy="89.6443" rx="3.5" ry="3.55815" fill="#00D285"/>
<ellipse cx="115.5" cy="89.6443" rx="3.5" ry="3.55815" fill="#00D285"/>
<ellipse cx="35.5" cy="101.844" rx="3.5" ry="3.55815" fill="#00D285"/>
<ellipse cx="51.5" cy="101.844" rx="3.5" ry="3.55815" fill="#00D285"/>
<ellipse cx="67.5" cy="101.844" rx="3.5" ry="3.55815" fill="#00D285"/>
<ellipse cx="83.5" cy="101.844" rx="3.5" ry="3.55815" fill="#00D285"/>
<ellipse cx="99.5" cy="101.844" rx="3.5" ry="3.55815" fill="#00D285"/>
<ellipse cx="115.5" cy="101.844" rx="3.5" ry="3.55815" fill="#00D285"/>
<ellipse cx="35.5" cy="114.043" rx="3.5" ry="3.55815" fill="#00D285"/>
<ellipse cx="51.5" cy="114.043" rx="3.5" ry="3.55815" fill="#00D285"/>
<ellipse cx="67.5" cy="114.043" rx="3.5" ry="3.55815" fill="#00D285"/>
<ellipse cx="83.5" cy="114.043" rx="3.5" ry="3.55815" fill="#00D285"/>
<ellipse cx="99.5" cy="114.043" rx="3.5" ry="3.55815" fill="#00D285"/>
<ellipse cx="115.5" cy="114.043" rx="3.5" ry="3.55815" fill="#00D285"/>
<ellipse cx="35.5" cy="126.242" rx="3.5" ry="3.55815" fill="#00D285"/>
<ellipse cx="51.5" cy="126.242" rx="3.5" ry="3.55815" fill="#00D285"/>
<ellipse cx="67.5" cy="126.242" rx="3.5" ry="3.55815" fill="#00D285"/>
<ellipse cx="83.5" cy="126.242" rx="3.5" ry="3.55815" fill="#00D285"/>
<ellipse cx="99.5" cy="138.442" rx="3.5" ry="3.55815" fill="#00D285"/>
<ellipse cx="115.5" cy="126.242" rx="3.5" ry="3.55815" fill="#00D285"/>
<ellipse cx="35.5" cy="138.442" rx="3.5" ry="3.55815" fill="#00D285"/>
<ellipse cx="51.5" cy="138.442" rx="3.5" ry="3.55815" fill="#00D285"/>
<ellipse cx="67.5" cy="138.442" rx="3.5" ry="3.55815" fill="#00D285"/>
<ellipse cx="83.5" cy="138.442" rx="3.5" ry="3.55815" fill="#00D285"/>
<ellipse cx="99.5" cy="126.242" rx="3.5" ry="3.55815" fill="#00D285"/>
<ellipse cx="115.5" cy="138.442" rx="3.5" ry="3.55815" fill="#00D285"/>
</svg>
