<svg width="151" height="142" viewBox="0 0 151 142" fill="none" xmlns="http://www.w3.org/2000/svg">
<ellipse cx="3.5" cy="4.12126" rx="3.5" ry="3.55815" fill="#00D285"/>
<ellipse cx="3.5" cy="16.3206" rx="3.5" ry="3.55815" fill="#00D285"/>
<ellipse cx="3.5" cy="28.52" rx="3.5" ry="3.55815" fill="#00D285"/>
<ellipse cx="3.5" cy="40.7194" rx="3.5" ry="3.55815" fill="#00D285"/>
<ellipse cx="3.5" cy="52.9188" rx="3.5" ry="3.55815" fill="#00D285"/>
<ellipse cx="3.5" cy="65.1181" rx="3.5" ry="3.55815" fill="#00D285"/>
<ellipse cx="3.5" cy="77.3176" rx="3.5" ry="3.55815" fill="#00D285"/>
<ellipse cx="3.5" cy="89.5169" rx="3.5" ry="3.55815" fill="#00D285"/>
<ellipse cx="3.5" cy="101.716" rx="3.5" ry="3.55815" fill="#00D285"/>
<ellipse cx="3.5" cy="113.916" rx="3.5" ry="3.55815" fill="#00D285"/>
<ellipse cx="3.5" cy="126.115" rx="3.5" ry="3.55815" fill="#00D285"/>
<ellipse cx="3.5" cy="138.314" rx="3.5" ry="3.55815" fill="#00D285"/>
<ellipse cx="19.5" cy="4.12126" rx="3.5" ry="3.55815" fill="#00D285"/>
<ellipse cx="19.5" cy="16.3206" rx="3.5" ry="3.55815" fill="#00D285"/>
<ellipse cx="19.5" cy="28.52" rx="3.5" ry="3.55815" fill="#00D285"/>
<ellipse cx="19.5" cy="40.7194" rx="3.5" ry="3.55815" fill="#00D285"/>
<ellipse cx="19.5" cy="52.9188" rx="3.5" ry="3.55815" fill="#00D285"/>
<ellipse cx="19.5" cy="65.1181" rx="3.5" ry="3.55815" fill="#00D285"/>
<ellipse cx="19.5" cy="77.3176" rx="3.5" ry="3.55815" fill="#00D285"/>
<ellipse cx="19.5" cy="89.5169" rx="3.5" ry="3.55815" fill="#00D285"/>
<ellipse cx="19.5" cy="101.716" rx="3.5" ry="3.55815" fill="#00D285"/>
<ellipse cx="19.5" cy="113.916" rx="3.5" ry="3.55815" fill="#00D285"/>
<ellipse cx="19.5" cy="126.115" rx="3.5" ry="3.55815" fill="#00D285"/>
<ellipse cx="19.5" cy="138.314" rx="3.5" ry="3.55815" fill="#00D285"/>
<ellipse cx="35.5" cy="4.12126" rx="3.5" ry="3.55815" fill="#00D285"/>
<ellipse cx="51.5" cy="4.12126" rx="3.5" ry="3.55815" fill="#00D285"/>
<ellipse cx="67.5" cy="4.12126" rx="3.5" ry="3.55815" fill="#00D285"/>
<ellipse cx="83.5" cy="4.12126" rx="3.5" ry="3.55815" fill="#00D285"/>
<ellipse cx="99.5" cy="4.12126" rx="3.5" ry="3.55815" fill="#00D285"/>
<ellipse cx="115.5" cy="4.12126" rx="3.5" ry="3.55815" fill="#00D285"/>
<ellipse cx="131.5" cy="4.12126" rx="3.5" ry="3.55815" fill="#00D285"/>
<ellipse cx="147.5" cy="4.12126" rx="3.5" ry="3.55815" fill="#00D285"/>
<ellipse cx="35.5" cy="16.3206" rx="3.5" ry="3.55815" fill="#00D285"/>
<ellipse cx="51.5" cy="16.3206" rx="3.5" ry="3.55815" fill="#00D285"/>
<ellipse cx="67.5" cy="16.3206" rx="3.5" ry="3.55815" fill="#00D285"/>
<ellipse cx="83.5" cy="16.3206" rx="3.5" ry="3.55815" fill="#00D285"/>
<ellipse cx="99.5" cy="16.3206" rx="3.5" ry="3.55815" fill="#00D285"/>
<ellipse cx="115.5" cy="16.3206" rx="3.5" ry="3.55815" fill="#00D285"/>
<ellipse cx="131.5" cy="16.3206" rx="3.5" ry="3.55815" fill="#00D285"/>
<ellipse cx="147.5" cy="16.3206" rx="3.5" ry="3.55815" fill="#00D285"/>
<ellipse cx="35.5" cy="28.52" rx="3.5" ry="3.55815" fill="#00D285"/>
<ellipse cx="51.5" cy="28.52" rx="3.5" ry="3.55815" fill="#00D285"/>
<ellipse cx="67.5" cy="28.52" rx="3.5" ry="3.55815" fill="#00D285"/>
<ellipse cx="83.5" cy="28.52" rx="3.5" ry="3.55815" fill="#00D285"/>
<ellipse cx="99.5" cy="28.52" rx="3.5" ry="3.55815" fill="#00D285"/>
<ellipse cx="115.5" cy="28.52" rx="3.5" ry="3.55815" fill="#00D285"/>
<ellipse cx="131.5" cy="28.52" rx="3.5" ry="3.55815" fill="#00D285"/>
<ellipse cx="147.5" cy="28.52" rx="3.5" ry="3.55815" fill="#00D285"/>
<ellipse cx="35.5" cy="40.7194" rx="3.5" ry="3.55815" fill="#00D285"/>
<ellipse cx="51.5" cy="40.7194" rx="3.5" ry="3.55815" fill="#00D285"/>
<ellipse cx="67.5" cy="40.7194" rx="3.5" ry="3.55815" fill="#00D285"/>
<ellipse cx="83.5" cy="40.7194" rx="3.5" ry="3.55815" fill="#00D285"/>
<ellipse cx="99.5" cy="40.7194" rx="3.5" ry="3.55815" fill="#00D285"/>
<ellipse cx="115.5" cy="40.7194" rx="3.5" ry="3.55815" fill="#00D285"/>
<ellipse cx="131.5" cy="40.7194" rx="3.5" ry="3.55815" fill="#00D285"/>
<ellipse cx="147.5" cy="40.7194" rx="3.5" ry="3.55815" fill="#00D285"/>
<ellipse cx="35.5" cy="52.9188" rx="3.5" ry="3.55815" fill="#00D285"/>
<ellipse cx="51.5" cy="52.9188" rx="3.5" ry="3.55815" fill="#00D285"/>
<ellipse cx="67.5" cy="52.9188" rx="3.5" ry="3.55815" fill="#00D285"/>
<ellipse cx="83.5" cy="52.9188" rx="3.5" ry="3.55815" fill="#00D285"/>
<ellipse cx="99.5" cy="52.9188" rx="3.5" ry="3.55815" fill="#00D285"/>
<ellipse cx="115.5" cy="52.9188" rx="3.5" ry="3.55815" fill="#00D285"/>
<ellipse cx="131.5" cy="52.9188" rx="3.5" ry="3.55815" fill="#00D285"/>
<ellipse cx="147.5" cy="52.9188" rx="3.5" ry="3.55815" fill="#00D285"/>
<ellipse cx="35.5" cy="65.1181" rx="3.5" ry="3.55815" fill="#00D285"/>
<ellipse cx="51.5" cy="65.1181" rx="3.5" ry="3.55815" fill="#00D285"/>
<ellipse cx="67.5" cy="65.1181" rx="3.5" ry="3.55815" fill="#00D285"/>
<ellipse cx="83.5" cy="65.1181" rx="3.5" ry="3.55815" fill="#00D285"/>
<ellipse cx="99.5" cy="65.1181" rx="3.5" ry="3.55815" fill="#00D285"/>
<ellipse cx="115.5" cy="65.1181" rx="3.5" ry="3.55815" fill="#00D285"/>
<ellipse cx="131.5" cy="65.1181" rx="3.5" ry="3.55815" fill="#00D285"/>
<ellipse cx="147.5" cy="65.1181" rx="3.5" ry="3.55815" fill="#00D285"/>
<ellipse cx="35.5" cy="77.3176" rx="3.5" ry="3.55815" fill="#00D285"/>
<ellipse cx="51.5" cy="77.3176" rx="3.5" ry="3.55815" fill="#00D285"/>
<ellipse cx="67.5" cy="77.3176" rx="3.5" ry="3.55815" fill="#00D285"/>
<ellipse cx="83.5" cy="77.3176" rx="3.5" ry="3.55815" fill="#00D285"/>
<ellipse cx="99.5" cy="77.3176" rx="3.5" ry="3.55815" fill="#00D285"/>
<ellipse cx="115.5" cy="77.3176" rx="3.5" ry="3.55815" fill="#00D285"/>
<ellipse cx="131.5" cy="77.3176" rx="3.5" ry="3.55815" fill="#00D285"/>
<ellipse cx="147.5" cy="77.3176" rx="3.5" ry="3.55815" fill="#00D285"/>
<ellipse cx="35.5" cy="89.5169" rx="3.5" ry="3.55815" fill="#00D285"/>
<ellipse cx="51.5" cy="89.5169" rx="3.5" ry="3.55815" fill="#00D285"/>
<ellipse cx="67.5" cy="89.5169" rx="3.5" ry="3.55815" fill="#00D285"/>
<ellipse cx="83.5" cy="89.5169" rx="3.5" ry="3.55815" fill="#00D285"/>
<ellipse cx="99.5" cy="89.5169" rx="3.5" ry="3.55815" fill="#00D285"/>
<ellipse cx="115.5" cy="89.5169" rx="3.5" ry="3.55815" fill="#00D285"/>
<ellipse cx="131.5" cy="89.5169" rx="3.5" ry="3.55815" fill="#00D285"/>
<ellipse cx="147.5" cy="89.5169" rx="3.5" ry="3.55815" fill="#00D285"/>
<ellipse cx="35.5" cy="101.716" rx="3.5" ry="3.55815" fill="#00D285"/>
<ellipse cx="51.5" cy="101.716" rx="3.5" ry="3.55815" fill="#00D285"/>
<ellipse cx="67.5" cy="101.716" rx="3.5" ry="3.55815" fill="#00D285"/>
<ellipse cx="83.5" cy="101.716" rx="3.5" ry="3.55815" fill="#00D285"/>
<ellipse cx="99.5" cy="101.716" rx="3.5" ry="3.55815" fill="#00D285"/>
<ellipse cx="115.5" cy="101.716" rx="3.5" ry="3.55815" fill="#00D285"/>
<ellipse cx="131.5" cy="101.716" rx="3.5" ry="3.55815" fill="#00D285"/>
<ellipse cx="147.5" cy="101.716" rx="3.5" ry="3.55815" fill="#00D285"/>
<ellipse cx="35.5" cy="113.916" rx="3.5" ry="3.55815" fill="#00D285"/>
<ellipse cx="51.5" cy="113.916" rx="3.5" ry="3.55815" fill="#00D285"/>
<ellipse cx="67.5" cy="113.916" rx="3.5" ry="3.55815" fill="#00D285"/>
<ellipse cx="83.5" cy="113.916" rx="3.5" ry="3.55815" fill="#00D285"/>
<ellipse cx="99.5" cy="113.916" rx="3.5" ry="3.55815" fill="#00D285"/>
<ellipse cx="115.5" cy="113.916" rx="3.5" ry="3.55815" fill="#00D285"/>
<ellipse cx="131.5" cy="113.916" rx="3.5" ry="3.55815" fill="#00D285"/>
<ellipse cx="147.5" cy="113.916" rx="3.5" ry="3.55815" fill="#00D285"/>
<ellipse cx="35.5" cy="126.115" rx="3.5" ry="3.55815" fill="#00D285"/>
<ellipse cx="51.5" cy="126.115" rx="3.5" ry="3.55815" fill="#00D285"/>
<ellipse cx="67.5" cy="126.115" rx="3.5" ry="3.55815" fill="#00D285"/>
<ellipse cx="83.5" cy="126.115" rx="3.5" ry="3.55815" fill="#00D285"/>
<ellipse cx="99.5" cy="138.314" rx="3.5" ry="3.55815" fill="#00D285"/>
<ellipse cx="115.5" cy="126.115" rx="3.5" ry="3.55815" fill="#00D285"/>
<ellipse cx="131.5" cy="126.115" rx="3.5" ry="3.55815" fill="#00D285"/>
<ellipse cx="147.5" cy="126.115" rx="3.5" ry="3.55815" fill="#00D285"/>
<ellipse cx="35.5" cy="138.314" rx="3.5" ry="3.55815" fill="#00D285"/>
<ellipse cx="51.5" cy="138.314" rx="3.5" ry="3.55815" fill="#00D285"/>
<ellipse cx="67.5" cy="138.314" rx="3.5" ry="3.55815" fill="#00D285"/>
<ellipse cx="83.5" cy="138.314" rx="3.5" ry="3.55815" fill="#00D285"/>
<ellipse cx="99.5" cy="126.115" rx="3.5" ry="3.55815" fill="#00D285"/>
<ellipse cx="115.5" cy="138.314" rx="3.5" ry="3.55815" fill="#00D285"/>
<ellipse cx="131.5" cy="138.314" rx="3.5" ry="3.55815" fill="#00D285"/>
<ellipse cx="147.5" cy="138.314" rx="3.5" ry="3.55815" fill="#00D285"/>
</svg>
