<svg width="1107" height="648" viewBox="0 0 1107 648" fill="none" xmlns="http://www.w3.org/2000/svg">
<path d="M1 1C87.7164 62 -21.313 108.5 65.78 122.017C120.138 130.454 154.509 177.727 164.888 210.777C171.612 228.385 196.725 258.318 243.385 237.189C301.71 210.777 321.444 280.053 317.935 309.928C314.427 339.804 274.082 373.143 253.91 332.876C233.737 292.609 228.037 266.198 284.169 255.806C340.301 245.415 334.161 414.275 454.319 429.429C574.476 444.584 510.964 576.337 585.001 532.477C679.285 476.624 661.744 549.796 702.966 540.271C744.188 530.745 724.098 464.757 688.139 453.5C652.179 442.243 557.303 499.211 688.139 592C890.477 735.5 1135.37 534.385 1020.8 507C953.866 491 1034.5 635.5 1106 647" stroke="#00D285" stroke-width="2"/>
</svg>
