<svg width="30" height="30" viewBox="0 0 30 30" fill="none" xmlns="http://www.w3.org/2000/svg">
<path d="M13.5937 20.2368L11.444 18.0872L10.1184 19.4128L13.5937 22.8881L19.8815 16.6003L18.5559 15.2747L13.5937 20.2368Z" fill="#000D2F"/>
<path d="M22.5 11.6869V8.4375C22.5 6.44838 21.7098 4.54072 20.3033 3.1342C18.8968 1.72768 16.9891 0.9375 15 0.9375C13.0109 0.9375 11.1032 1.72768 9.6967 3.1342C8.29018 4.54072 7.5 6.44838 7.5 8.4375V11.6878C5.69335 13.5953 4.68677 16.1228 4.6875 18.75C4.6875 24.4444 9.30563 29.0625 15 29.0625C20.6963 29.0625 25.3125 24.4444 25.3125 18.75C25.3125 16.0134 24.2391 13.5337 22.5 11.6869V11.6869ZM9.375 8.4375C9.375 5.33531 11.8978 2.8125 15 2.8125C18.1022 2.8125 20.625 5.33531 20.625 8.4375V10.1138C18.9533 9.01896 16.9983 8.43635 15 8.4375C13.0017 8.43635 11.0467 9.01896 9.375 10.1138V8.4375ZM15 27.1875C10.3397 27.1875 6.5625 23.4103 6.5625 18.75C6.5625 14.0897 10.3397 10.3125 15 10.3125C19.6603 10.3125 23.4375 14.0897 23.4375 18.75C23.4375 23.4103 19.6603 27.1875 15 27.1875Z" fill="#000D2F"/>
</svg>
