<svg width="30" height="30" viewBox="0 0 30 30" fill="none" xmlns="http://www.w3.org/2000/svg">
<path d="M15.625 25.625C14.8442 25.6267 14.0936 25.324 13.5325 24.7812C14.1003 25.3068 14.8451 25.5994 15.6189 25.601C16.3926 25.6027 17.1386 25.3131 17.7087 24.79C17.1484 25.3275 16.4014 25.6268 15.625 25.625ZM17.9137 18.5375L18.75 19.375L17.9137 18.5375ZM24.8025 17.6937C25.3293 17.1332 25.6226 16.3929 25.6226 15.6237C25.6226 14.8545 25.3293 14.1142 24.8025 13.5537C25.3307 14.1135 25.6249 14.8541 25.6249 15.6237C25.6249 16.3934 25.3307 17.1339 24.8025 17.6937ZM6.42747 17.6812C5.90577 17.1226 5.6156 16.3868 5.6156 15.6225C5.6156 14.8581 5.90577 14.1223 6.42747 13.5637C5.9066 14.1227 5.61698 14.8584 5.61698 15.6225C5.61698 16.3865 5.9066 17.1222 6.42747 17.6812Z" fill="white"/>
<path d="M15.625 5.03511C14.6635 5.02499 13.7372 5.39625 13.0488 6.06761L6.06754 13.0489C5.72882 13.387 5.4601 13.7885 5.27675 14.2306C5.0934 14.6727 4.99902 15.1465 4.99902 15.6251C4.99902 16.1037 5.0934 16.5776 5.27675 17.0196C5.4601 17.4617 5.72882 17.8633 6.06754 18.2014L13.0488 25.1826C13.3869 25.5213 13.7884 25.7901 14.2305 25.9734C14.6726 26.1568 15.1465 26.2511 15.625 26.2511C16.1036 26.2511 16.5775 26.1568 17.0196 25.9734C17.4616 25.7901 17.8632 25.5213 18.2013 25.1826L25.1825 18.2014C25.5213 17.8633 25.79 17.4617 25.9733 17.0196C26.1567 16.5776 26.2511 16.1037 26.2511 15.6251C26.2511 15.1465 26.1567 14.6727 25.9733 14.2306C25.79 13.7885 25.5213 13.387 25.1825 13.0489L18.2013 6.06761C17.5129 5.39625 16.5865 5.02499 15.625 5.03511ZM15.625 24.9764C14.9935 24.9832 14.385 24.7396 13.9325 24.2989L6.95129 17.3176C6.7289 17.0954 6.55248 16.8316 6.43211 16.5412C6.31175 16.2508 6.24979 15.9395 6.24979 15.6251C6.24979 15.3107 6.31175 14.9995 6.43211 14.7091C6.55248 14.4186 6.7289 14.1548 6.95129 13.9326L13.9325 6.95136C14.3887 6.5164 14.9948 6.27374 15.625 6.27374C16.2553 6.27374 16.8614 6.5164 17.3175 6.95136L24.2988 13.9326C24.5212 14.1548 24.6976 14.4186 24.818 14.7091C24.9383 14.9995 25.0003 15.3107 25.0003 15.6251C25.0003 15.9395 24.9383 16.2508 24.818 16.5412C24.6976 16.8316 24.5212 17.0954 24.2988 17.3176L17.3175 24.2989C16.8651 24.7396 16.2566 24.9832 15.625 24.9764ZM15.625 10.6251C14.6305 10.6251 13.6766 11.0202 12.9734 11.7235C12.2701 12.4267 11.875 13.3806 11.875 14.3751V18.7501C11.875 18.9159 11.9409 19.0748 12.0581 19.1921C12.1753 19.3093 12.3343 19.3751 12.5 19.3751C12.6658 19.3751 12.8248 19.3093 12.942 19.1921C13.0592 19.0748 13.125 18.9159 13.125 18.7501V14.3751C13.125 13.7121 13.3884 13.0762 13.8573 12.6073C14.3261 12.1385 14.962 11.8751 15.625 11.8751C16.2881 11.8751 16.924 12.1385 17.3928 12.6073C17.8616 13.0762 18.125 13.7121 18.125 14.3751V17.8664L17.9425 17.6826C17.8252 17.5653 17.666 17.4993 17.5 17.4993C17.3341 17.4993 17.1749 17.5653 17.0575 17.6826C16.9402 17.8 16.8742 17.9591 16.8742 18.1251C16.8742 18.2911 16.9402 18.4503 17.0575 18.5676L18.3075 19.8176C18.3656 19.8758 18.4346 19.922 18.5105 19.9535C18.5864 19.985 18.6678 20.0012 18.75 20.0012C18.8322 20.0012 18.9136 19.985 18.9896 19.9535C19.0655 19.922 19.1345 19.8758 19.1925 19.8176L20.4425 18.5676C20.5599 18.4503 20.6258 18.2911 20.6258 18.1251C20.6258 17.9591 20.5599 17.8 20.4425 17.6826C20.3252 17.5653 20.166 17.4993 20 17.4993C19.8341 17.4993 19.6749 17.5653 19.5575 17.6826L19.375 17.8664V14.3751C19.375 13.3806 18.9799 12.4267 18.2767 11.7235C17.5734 11.0202 16.6196 10.6251 15.625 10.6251Z" fill="#000D2F"/>
</svg>
