<svg width="735" height="619" viewBox="0 0 735 619" fill="none" xmlns="http://www.w3.org/2000/svg">
<path d="M1 1C63.1819 36.6131 -15 63.7608 47.452 71.6525C86.4308 76.578 111.077 104.177 118.52 123.472C123.341 133.752 141.349 151.228 174.808 138.892C216.631 123.472 230.781 163.917 228.266 181.359C225.75 198.801 196.82 218.265 182.355 194.756C167.89 171.248 163.802 155.828 204.052 149.762C244.303 143.695 239.901 242.279 326.062 251.126C412.224 259.974 352.274 387.116 405.364 361.51C472.973 328.901 455.823 379.158 492.637 341.368C511.34 322.17 474.93 294.748 448.274 298.457C421.001 302.252 539.645 533.453 633.464 587.626C778.555 671.404 737.497 539.393 689.497 530.051C641.497 520.71 552.447 583.249 563.72 618" stroke="#00D285" stroke-width="2"/>
</svg>
