<svg width="1093" height="1029" viewBox="0 0 1093 1029" fill="none" xmlns="http://www.w3.org/2000/svg">
<path d="M1.5 1C87 62 -20.5 108.5 65.3713 122.017C118.967 130.454 152.856 177.727 163.089 210.777C169.719 228.385 194.48 258.318 240.485 237.189C297.992 210.777 317.449 280.053 313.99 309.928C310.531 339.804 270.752 373.143 250.862 332.876C230.973 292.609 225.352 266.198 280.697 255.806C336.041 245.415 329.988 414.275 448.46 429.429C566.932 444.584 484.501 662.36 557.5 618.5C650.462 562.646 626.881 648.729 677.5 584C703.216 551.116 653.153 504.147 616.5 510.5C579 517 487.5 761.711 616.5 854.5C816 998 1060.5 902 1001 881.5C941.5 861 1042 1028 1093 1028" stroke="#00D285" stroke-opacity="0.5" stroke-width="2"/>
</svg>
