<svg width="187" height="41" viewBox="0 0 187 41" fill="none" xmlns="http://www.w3.org/2000/svg">
<circle cx="20" cy="20.4126" r="19" fill="#00D285" stroke="white" stroke-width="2"/>
<path d="M1.17647 24.7263L29.8039 3.94202" stroke="white"/>
<path d="M10.1961 37.6675L38.8235 16.8832" stroke="white"/>
<path d="M51.264 6.56835C52.752 6.56835 54.04 6.81635 55.128 7.31235C56.232 7.80835 57.08 8.51235 57.672 9.42435C58.264 10.3363 58.56 11.4163 58.56 12.6643C58.56 13.8963 58.264 14.9763 57.672 15.9043C57.08 16.8163 56.232 17.5203 55.128 18.0163C54.04 18.4963 52.752 18.7363 51.264 18.7363H47.88V23.3683H43.992V6.56835H51.264ZM51.048 15.5683C52.216 15.5683 53.104 15.3203 53.712 14.8243C54.32 14.3123 54.624 13.5923 54.624 12.6643C54.624 11.7203 54.32 11.0003 53.712 10.5043C53.104 9.99235 52.216 9.73635 51.048 9.73635H47.88V15.5683H51.048ZM74.3438 20.2483V23.3683H61.3358V6.56835H74.0318V9.68835H65.1998V13.3363H72.9998V16.3603H65.1998V20.2483H74.3438ZM80.9173 9.73635H75.5413V6.56835H90.1813V9.73635H84.8053V23.3683H80.9173V9.73635ZM102.977 23.3683L99.7373 18.6883H99.5453H96.1613V23.3683H92.2733V6.56835H99.5453C101.033 6.56835 102.321 6.81635 103.409 7.31235C104.513 7.80835 105.361 8.51235 105.953 9.42435C106.545 10.3363 106.841 11.4163 106.841 12.6643C106.841 13.9123 106.537 14.9923 105.929 15.9043C105.337 16.8003 104.489 17.4883 103.385 17.9683L107.153 23.3683H102.977ZM102.905 12.6643C102.905 11.7203 102.601 11.0003 101.993 10.5043C101.385 9.99235 100.497 9.73635 99.3293 9.73635H96.1613V15.5923H99.3293C100.497 15.5923 101.385 15.3363 101.993 14.8243C102.601 14.3123 102.905 13.5923 102.905 12.6643ZM118.058 23.6563C116.314 23.6563 114.738 23.2803 113.33 22.5283C111.938 21.7763 110.842 20.7443 110.042 19.4323C109.258 18.1043 108.866 16.6163 108.866 14.9683C108.866 13.3203 109.258 11.8403 110.042 10.5283C110.842 9.20035 111.938 8.16035 113.33 7.40835C114.738 6.65635 116.314 6.28035 118.058 6.28035C119.802 6.28035 121.37 6.65635 122.762 7.40835C124.154 8.16035 125.25 9.20035 126.05 10.5283C126.85 11.8403 127.25 13.3203 127.25 14.9683C127.25 16.6163 126.85 18.1043 126.05 19.4323C125.25 20.7443 124.154 21.7763 122.762 22.5283C121.37 23.2803 119.802 23.6563 118.058 23.6563ZM118.058 20.3443C119.05 20.3443 119.946 20.1203 120.746 19.6723C121.546 19.2083 122.17 18.5683 122.618 17.7523C123.082 16.9363 123.314 16.0083 123.314 14.9683C123.314 13.9283 123.082 13.0003 122.618 12.1843C122.17 11.3683 121.546 10.7363 120.746 10.2883C119.946 9.82435 119.05 9.59235 118.058 9.59235C117.066 9.59235 116.17 9.82435 115.37 10.2883C114.57 10.7363 113.938 11.3683 113.474 12.1843C113.026 13.0003 112.802 13.9283 112.802 14.9683C112.802 16.0083 113.026 16.9363 113.474 17.7523C113.938 18.5683 114.57 19.2083 115.37 19.6723C116.17 20.1203 117.066 20.3443 118.058 20.3443ZM145.58 6.56835V23.3683H142.388L134.012 13.1683V23.3683H130.172V6.56835H133.388L141.74 16.7683V6.56835H145.58ZM160.907 14.7043H164.459V21.5203C163.547 22.2083 162.491 22.7363 161.291 23.1043C160.091 23.4723 158.883 23.6563 157.667 23.6563C155.923 23.6563 154.355 23.2883 152.963 22.5523C151.571 21.8003 150.475 20.7683 149.675 19.4563C148.891 18.1283 148.499 16.6323 148.499 14.9683C148.499 13.3043 148.891 11.8163 149.675 10.5043C150.475 9.17635 151.579 8.14435 152.987 7.40835C154.395 6.65635 155.979 6.28035 157.739 6.28035C159.211 6.28035 160.547 6.52835 161.747 7.02435C162.947 7.52035 163.955 8.24035 164.771 9.18435L162.275 11.4883C161.075 10.2243 159.627 9.59235 157.931 9.59235C156.859 9.59235 155.907 9.81635 155.075 10.2643C154.243 10.7123 153.595 11.3443 153.131 12.1603C152.667 12.9763 152.435 13.9123 152.435 14.9683C152.435 16.0083 152.667 16.9363 153.131 17.7523C153.595 18.5683 154.235 19.2083 155.051 19.6723C155.883 20.1203 156.827 20.3443 157.883 20.3443C159.003 20.3443 160.011 20.1043 160.907 19.6243V14.7043ZM45.399 36.4563C44.8197 36.4563 44.2587 36.3683 43.716 36.1923C43.1807 36.009 42.759 35.7743 42.451 35.4883L42.858 34.6303C43.1513 34.8943 43.5253 35.1107 43.98 35.2793C44.442 35.4407 44.915 35.5213 45.399 35.5213C46.037 35.5213 46.5137 35.415 46.829 35.2023C47.1443 34.9823 47.302 34.6927 47.302 34.3333C47.302 34.0693 47.214 33.8567 47.038 33.6953C46.8693 33.5267 46.6567 33.3983 46.4 33.3103C46.1507 33.2223 45.795 33.1233 45.333 33.0133C44.7537 32.874 44.2843 32.7347 43.925 32.5953C43.573 32.456 43.2687 32.2433 43.012 31.9573C42.7627 31.664 42.638 31.2717 42.638 30.7803C42.638 30.3697 42.7443 29.9993 42.957 29.6693C43.177 29.3393 43.507 29.0753 43.947 28.8773C44.387 28.6793 44.9333 28.5803 45.586 28.5803C46.0407 28.5803 46.488 28.639 46.928 28.7563C47.368 28.8737 47.7457 29.0423 48.061 29.2623L47.698 30.1423C47.3753 29.937 47.0307 29.783 46.664 29.6803C46.2973 29.5703 45.938 29.5153 45.586 29.5153C44.9627 29.5153 44.4933 29.629 44.178 29.8563C43.87 30.0837 43.716 30.377 43.716 30.7363C43.716 31.0003 43.804 31.2167 43.98 31.3853C44.156 31.5467 44.3723 31.675 44.629 31.7703C44.893 31.8583 45.2487 31.9537 45.696 32.0563C46.2753 32.1957 46.741 32.335 47.093 32.4743C47.445 32.6137 47.7457 32.8263 47.995 33.1123C48.2517 33.3983 48.38 33.7833 48.38 34.2673C48.38 34.6707 48.27 35.041 48.05 35.3783C47.83 35.7083 47.4963 35.9723 47.049 36.1703C46.6017 36.361 46.0517 36.4563 45.399 36.4563ZM53.463 36.4563C52.6857 36.4563 51.9854 36.2877 51.362 35.9503C50.7387 35.6057 50.2474 35.1327 49.888 34.5313C49.536 33.93 49.36 33.259 49.36 32.5183C49.36 31.7777 49.536 31.1067 49.888 30.5053C50.2474 29.904 50.7387 29.4347 51.362 29.0973C51.9854 28.7527 52.6857 28.5803 53.463 28.5803C54.233 28.5803 54.9297 28.7527 55.553 29.0973C56.1764 29.4347 56.664 29.904 57.016 30.5053C57.368 31.0993 57.544 31.7703 57.544 32.5183C57.544 33.2663 57.368 33.941 57.016 34.5423C56.664 35.1363 56.1764 35.6057 55.553 35.9503C54.9297 36.2877 54.233 36.4563 53.463 36.4563ZM53.463 35.4773C54.0277 35.4773 54.5337 35.349 54.981 35.0923C55.4357 34.8357 55.7914 34.4837 56.048 34.0363C56.312 33.5817 56.444 33.0757 56.444 32.5183C56.444 31.961 56.312 31.4587 56.048 31.0113C55.7914 30.5567 55.4357 30.201 54.981 29.9443C54.5337 29.6877 54.0277 29.5593 53.463 29.5593C52.8984 29.5593 52.385 29.6877 51.923 29.9443C51.4684 30.201 51.109 30.5567 50.845 31.0113C50.5884 31.4587 50.46 31.961 50.46 32.5183C50.46 33.0757 50.5884 33.5817 50.845 34.0363C51.109 34.4837 51.4684 34.8357 51.923 35.0923C52.385 35.349 52.8984 35.4773 53.463 35.4773ZM60.3253 29.6253V32.3093H64.1863V33.2553H60.3253V36.3683H59.2253V28.6683H64.6593V29.6253H60.3253ZM67.7904 29.6253H65.1504V28.6683H71.5194V29.6253H68.8794V36.3683H67.7904V29.6253ZM83.5106 28.6683L80.9366 36.3683H79.7816L77.6806 30.2193L75.5796 36.3683H74.4026L71.8286 28.6683H72.9616L75.0406 34.9273L77.2076 28.6683H78.2196L80.3426 34.9603L82.4656 28.6683H83.5106ZM89.5151 34.4433H85.4231L84.5761 36.3683H83.4431L86.9301 28.6683H88.0191L91.5171 36.3683H90.3621L89.5151 34.4433ZM89.1301 33.5633L87.4691 29.7903L85.8081 33.5633H89.1301ZM97.8137 36.3683L96.1527 34.0033C95.9474 34.018 95.7861 34.0253 95.6687 34.0253H93.7657V36.3683H92.6657V28.6683H95.6687C96.6661 28.6683 97.4507 28.9067 98.0227 29.3833C98.5947 29.86 98.8807 30.5163 98.8807 31.3523C98.8807 31.9463 98.7341 32.4523 98.4407 32.8703C98.1474 33.2883 97.7294 33.5927 97.1867 33.7833L99.0127 36.3683H97.8137ZM95.6357 33.0903C96.3324 33.0903 96.8641 32.94 97.2307 32.6393C97.5974 32.3387 97.7807 31.9097 97.7807 31.3523C97.7807 30.795 97.5974 30.3697 97.2307 30.0763C96.8641 29.7757 96.3324 29.6253 95.6357 29.6253H93.7657V33.0903H95.6357ZM106.246 35.4113V36.3683H100.658V28.6683H106.092V29.6253H101.758V31.9903H105.619V32.9253H101.758V35.4113H106.246ZM113.225 36.4563C112.646 36.4563 112.085 36.3683 111.542 36.1923C111.007 36.009 110.585 35.7743 110.277 35.4883L110.684 34.6303C110.978 34.8943 111.352 35.1107 111.806 35.2793C112.268 35.4407 112.741 35.5213 113.225 35.5213C113.863 35.5213 114.34 35.415 114.655 35.2023C114.971 34.9823 115.128 34.6927 115.128 34.3333C115.128 34.0693 115.04 33.8567 114.864 33.6953C114.696 33.5267 114.483 33.3983 114.226 33.3103C113.977 33.2223 113.621 33.1233 113.159 33.0133C112.58 32.874 112.111 32.7347 111.751 32.5953C111.399 32.456 111.095 32.2433 110.838 31.9573C110.589 31.664 110.464 31.2717 110.464 30.7803C110.464 30.3697 110.571 29.9993 110.783 29.6693C111.003 29.3393 111.333 29.0753 111.773 28.8773C112.213 28.6793 112.76 28.5803 113.412 28.5803C113.867 28.5803 114.314 28.639 114.754 28.7563C115.194 28.8737 115.572 29.0423 115.887 29.2623L115.524 30.1423C115.202 29.937 114.857 29.783 114.49 29.6803C114.124 29.5703 113.764 29.5153 113.412 29.5153C112.789 29.5153 112.32 29.629 112.004 29.8563C111.696 30.0837 111.542 30.377 111.542 30.7363C111.542 31.0003 111.63 31.2167 111.806 31.3853C111.982 31.5467 112.199 31.675 112.455 31.7703C112.719 31.8583 113.075 31.9537 113.522 32.0563C114.102 32.1957 114.567 32.335 114.919 32.4743C115.271 32.6137 115.572 32.8263 115.821 33.1123C116.078 33.3983 116.206 33.7833 116.206 34.2673C116.206 34.6707 116.096 35.041 115.876 35.3783C115.656 35.7083 115.323 35.9723 114.875 36.1703C114.428 36.361 113.878 36.4563 113.225 36.4563ZM121.289 36.4563C120.512 36.4563 119.812 36.2877 119.188 35.9503C118.565 35.6057 118.074 35.1327 117.714 34.5313C117.362 33.93 117.186 33.259 117.186 32.5183C117.186 31.7777 117.362 31.1067 117.714 30.5053C118.074 29.904 118.565 29.4347 119.188 29.0973C119.812 28.7527 120.512 28.5803 121.289 28.5803C122.059 28.5803 122.756 28.7527 123.379 29.0973C124.003 29.4347 124.49 29.904 124.842 30.5053C125.194 31.0993 125.37 31.7703 125.37 32.5183C125.37 33.2663 125.194 33.941 124.842 34.5423C124.49 35.1363 124.003 35.6057 123.379 35.9503C122.756 36.2877 122.059 36.4563 121.289 36.4563ZM121.289 35.4773C121.854 35.4773 122.36 35.349 122.807 35.0923C123.262 34.8357 123.618 34.4837 123.874 34.0363C124.138 33.5817 124.27 33.0757 124.27 32.5183C124.27 31.961 124.138 31.4587 123.874 31.0113C123.618 30.5567 123.262 30.201 122.807 29.9443C122.36 29.6877 121.854 29.5593 121.289 29.5593C120.725 29.5593 120.211 29.6877 119.749 29.9443C119.295 30.201 118.935 30.5567 118.671 31.0113C118.415 31.4587 118.286 31.961 118.286 32.5183C118.286 33.0757 118.415 33.5817 118.671 34.0363C118.935 34.4837 119.295 34.8357 119.749 35.0923C120.211 35.349 120.725 35.4773 121.289 35.4773ZM127.051 28.6683H128.151V35.4113H132.32V36.3683H127.051V28.6683ZM136.644 36.4563C135.617 36.4563 134.818 36.163 134.246 35.5763C133.674 34.9897 133.388 34.1463 133.388 33.0463V28.6683H134.488V33.0023C134.488 34.6523 135.21 35.4773 136.655 35.4773C137.359 35.4773 137.898 35.2757 138.272 34.8723C138.646 34.4617 138.833 33.8383 138.833 33.0023V28.6683H139.9V33.0463C139.9 34.1537 139.614 35.0007 139.042 35.5873C138.47 36.1667 137.67 36.4563 136.644 36.4563ZM143.544 29.6253H140.904V28.6683H147.273V29.6253H144.633V36.3683H143.544V29.6253ZM148.471 28.6683H149.571V36.3683H148.471V28.6683ZM155.353 36.4563C154.575 36.4563 153.875 36.2877 153.252 35.9503C152.628 35.6057 152.137 35.1327 151.778 34.5313C151.426 33.93 151.25 33.259 151.25 32.5183C151.25 31.7777 151.426 31.1067 151.778 30.5053C152.137 29.904 152.628 29.4347 153.252 29.0973C153.875 28.7527 154.575 28.5803 155.353 28.5803C156.123 28.5803 156.819 28.7527 157.443 29.0973C158.066 29.4347 158.554 29.904 158.906 30.5053C159.258 31.0993 159.434 31.7703 159.434 32.5183C159.434 33.2663 159.258 33.941 158.906 34.5423C158.554 35.1363 158.066 35.6057 157.443 35.9503C156.819 36.2877 156.123 36.4563 155.353 36.4563ZM155.353 35.4773C155.917 35.4773 156.423 35.349 156.871 35.0923C157.325 34.8357 157.681 34.4837 157.938 34.0363C158.202 33.5817 158.334 33.0757 158.334 32.5183C158.334 31.961 158.202 31.4587 157.938 31.0113C157.681 30.5567 157.325 30.201 156.871 29.9443C156.423 29.6877 155.917 29.5593 155.353 29.5593C154.788 29.5593 154.275 29.6877 153.813 29.9443C153.358 30.201 152.999 30.5567 152.735 31.0113C152.478 31.4587 152.35 31.961 152.35 32.5183C152.35 33.0757 152.478 33.5817 152.735 34.0363C152.999 34.4837 153.358 34.8357 153.813 35.0923C154.275 35.349 154.788 35.4773 155.353 35.4773ZM167.737 28.6683V36.3683H166.835L162.215 30.6263V36.3683H161.115V28.6683H162.017L166.637 34.4103V28.6683H167.737Z" fill="#00D285"/>
</svg>
